<svg width="36" height="36" viewBox="0 0 36 36" fill="none" xmlns="http://www.w3.org/2000/svg">
<path d="M3.48956 32.5104C1 30.0209 1 26.0127 1 18C1 9.98733 1 5.97911 3.48956 3.48956C5.97911 1 9.98733 1 18 1C26.0127 1 30.0209 1 32.5104 3.48956C35 5.97911 35 9.98733 35 18C35 26.0127 35 30.0209 32.5104 32.5104C30.0209 35 26.0127 35 18 35C9.98733 35 5.97911 35 3.48956 32.5104Z" fill="#D9D9D9" stroke="#21A366" stroke-width="1.5" stroke-linecap="round" stroke-linejoin="round"/>
<path d="M6.66669 18.0004H11.3889L15.1667 10.4448L20.8334 25.5559L24.6111 18.0004H29.3334" fill="#D9D9D9"/>
<path d="M6.66669 18.0004H11.3889L15.1667 10.4448L20.8334 25.5559L24.6111 18.0004H29.3334" stroke="#21A366" stroke-width="1.5" stroke-linecap="round" stroke-linejoin="round"/>
</svg>
