<svg width="43" height="43" viewBox="0 0 43 43" fill="none" xmlns="http://www.w3.org/2000/svg">
<path d="M11.6709 3.5835C9.33458 3.81462 7.7615 4.3342 6.58617 5.51133C4.48096 7.62012 4.48096 11.0153 4.48096 17.8075V25.01C4.48096 31.8005 4.48096 35.1975 6.58617 37.308C8.69137 39.4186 12.0812 39.4168 18.8591 39.4168H22.455C29.2328 39.4168 32.6227 39.4168 34.7279 37.308C36.6396 35.391 36.817 32.4401 36.8331 26.834" stroke="#185C37" stroke-width="1.5" stroke-linecap="round" stroke-linejoin="round"/>
<path d="M18.8591 12.5419L20.6561 18.8127C21.6595 20.8015 22.919 21.3211 26.0491 21.5002C28.5377 21.4393 29.9818 21.1455 31.2144 20.0741C32.0547 19.3431 32.4346 18.2412 32.6191 17.1447L33.2354 13.4377M37.7289 9.8544V18.8127M15.4101 8.83853C18.2535 6.4789 20.7869 5.21219 26.0419 3.81828C26.6347 3.66176 27.2584 3.66485 27.8497 3.82724C32.5008 5.10649 35.0128 6.2424 38.3775 8.76865C38.5208 8.87615 38.5638 9.07682 38.4635 9.22553C37.3652 10.8416 34.9124 12.1513 28.896 14.4841C27.6429 14.9663 26.254 14.9586 25.0063 14.4626C18.5993 11.9184 15.6538 10.5567 15.2955 9.14311C15.2838 9.08669 15.2884 9.02813 15.3087 8.97422C15.329 8.92031 15.3642 8.87326 15.4101 8.83853Z" stroke="#185C37" stroke-width="1.5" stroke-linecap="round" stroke-linejoin="round"/>
</svg>
