<svg width="22" height="22" viewBox="0 0 22 22" fill="none" xmlns="http://www.w3.org/2000/svg">
<path d="M2.75 4.125V5.5H17.875V16.5H8.25V17.875H20.625V16.5H19.25V4.125H2.75ZM5.50137 6.1875C4.77268 6.19003 4.07454 6.48054 3.55914 6.99567C3.04375 7.51081 2.7529 8.20881 2.75 8.9375C2.75 10.4493 3.99025 11.6875 5.50137 11.6875C6.2297 11.6846 6.92735 11.3939 7.44223 10.8788C7.95711 10.3636 8.24747 9.66583 8.25 8.9375C8.25 7.42706 7.01113 6.1875 5.50137 6.1875ZM9.625 6.875V8.25H13.0625V6.875H9.625ZM14.4375 6.875V8.25H16.5V6.875H14.4375ZM5.50137 7.5625C6.26725 7.5625 6.875 8.16956 6.875 8.9375C6.875 9.7075 6.26794 10.3125 5.50137 10.3125C4.73137 10.3125 4.125 9.7075 4.125 8.9375C4.125 8.16956 4.73206 7.5625 5.50137 7.5625ZM9.625 9.625V11H16.5V9.625H9.625ZM2.75 12.375V17.875H4.125V13.75H6.1875V17.875H7.5625V14.2024L8.9815 14.9531C9.38369 15.1663 9.867 15.1656 10.2685 14.9531V14.9545L12.6954 13.6709L12.0539 12.4541L9.62637 13.7376L7.49788 12.6143C7.20087 12.4572 6.86998 12.3751 6.534 12.375H2.75Z" fill="#21A366"/>
</svg>
