<svg width="81" height="81" viewBox="0 0 81 81" fill="none" xmlns="http://www.w3.org/2000/svg">
<path d="M48.1919 20.3698C48.1919 21.0451 47.6463 21.5896 46.971 21.5896H36.8679C36.1938 21.5896 35.647 21.0451 35.647 20.3698V10.2644C35.647 9.59252 36.1938 9.04468 36.8679 9.04468H46.971C47.6463 9.04468 48.1919 9.59252 48.1919 10.2644V20.3698Z" fill="#21A366"/>
<path d="M63.2476 20.3698C63.2476 21.0451 62.6998 21.5896 62.0267 21.5896H51.9212C51.2494 21.5896 50.7004 21.0451 50.7004 20.3698V10.2644C50.7004 9.59252 51.2494 9.04468 51.9212 9.04468H62.0267C62.6998 9.04468 63.2476 9.59252 63.2476 10.2644V20.3698Z" fill="#21A366"/>
<path d="M63.2476 50.4776C63.2476 51.1518 62.6998 51.6985 62.0267 51.6985H51.9212C51.2494 51.6985 50.7004 51.1518 50.7004 50.4776V40.3756C50.7004 39.6992 51.2494 39.1514 51.9212 39.1514H62.0267C62.6998 39.1514 63.2476 39.6992 63.2476 40.3756V50.4776Z" fill="#21A366"/>
<path d="M33.1406 35.4134C33.1406 36.0887 32.5928 36.6353 31.9175 36.6353H21.8144C21.1402 36.6353 20.5935 36.0887 20.5935 35.4134V25.3102C20.5935 24.6349 21.1402 24.0894 21.8144 24.0894H31.9175C32.5928 24.0894 33.1406 24.6349 33.1406 25.3102V35.4134Z" fill="#21A366"/>
<path d="M48.1919 35.4134C48.1919 36.0887 47.6463 36.6353 46.971 36.6353H36.8679C36.1938 36.6353 35.647 36.0887 35.647 35.4134V25.3102C35.647 24.6349 36.1938 24.0894 36.8679 24.0894H46.971C47.6463 24.0894 48.1919 24.6349 48.1919 25.3102V35.4134Z" fill="#21A366"/>
<path d="M33.1406 50.4776C33.1406 51.1518 32.5928 51.6985 31.9175 51.6985H21.8144C21.1402 51.6985 20.5935 51.1518 20.5935 50.4776V40.3756C20.5935 39.6992 21.1402 39.1514 21.8144 39.1514H31.9175C32.5928 39.1514 33.1406 39.6992 33.1406 40.3756V50.4776Z" fill="#21A366"/>
<path d="M48.1919 50.4776C48.1919 51.1518 47.6463 51.6985 46.971 51.6985H36.8679C36.1938 51.6985 35.647 51.1518 35.647 50.4776V40.3756C35.647 39.6992 36.1938 39.1514 36.8679 39.1514H46.971C47.6463 39.1514 48.1919 39.6992 48.1919 40.3756V50.4776Z" fill="#21A366"/>
<path d="M33.1406 65.5467C33.1406 66.2219 32.5928 66.7686 31.9175 66.7686H21.8144C21.1402 66.7686 20.5935 66.2219 20.5935 65.5467V55.4446C20.5935 54.7705 21.1402 54.2227 21.8144 54.2227H31.9175C32.5928 54.2227 33.1406 54.7705 33.1406 55.4446V65.5467Z" fill="#21A366"/>
<path d="M48.1919 65.5467C48.1919 66.2219 47.6463 66.7686 46.971 66.7686H36.8679C36.1938 66.7686 35.647 66.2219 35.647 65.5467V55.4446C35.647 54.7705 36.1938 54.2227 36.8679 54.2227H46.971C47.6463 54.2227 48.1919 54.7705 48.1919 55.4446V65.5467Z" fill="#21A366"/>
<path d="M33.7652 15.318C33.7652 19.1281 30.6773 22.2171 26.8672 22.2171C23.0571 22.2171 19.9692 19.1281 19.9692 15.318C19.9692 11.5057 23.0571 8.41675 26.8672 8.41675C30.6773 8.41675 33.7652 11.5057 33.7652 15.318Z" fill="#DA4848"/>
</svg>
