<svg width="24" height="24" viewBox="0 0 24 24" fill="none" xmlns="http://www.w3.org/2000/svg">
<path fill-rule="evenodd" clip-rule="evenodd" d="M9.5 18C11.7543 18 13.9163 17.1045 15.5104 15.5104C17.1045 13.9163 18 11.7543 18 9.5C18 7.24566 17.1045 5.08365 15.5104 3.48959C13.9163 1.89553 11.7543 1 9.5 1C7.24566 1 5.08365 1.89553 3.48959 3.48959C1.89553 5.08365 1 7.24566 1 9.5C1 11.7543 1.89553 13.9163 3.48959 15.5104C5.08365 17.1045 7.24566 18 9.5 18ZM9.5 15C10.9587 15 12.3576 14.4205 13.3891 13.3891C14.4205 12.3576 15 10.9587 15 9.5C15 8.04131 14.4205 6.64236 13.3891 5.61091C12.3576 4.57946 10.9587 4 9.5 4C8.04131 4 6.64236 4.57946 5.61091 5.61091C4.57946 6.64236 4 8.04131 4 9.5C4 10.9587 4.57946 12.3576 5.61091 13.3891C6.64236 14.4205 8.04131 15 9.5 15ZM13.705 18L16.737 23H20.247L17.213 18H13.705Z" fill="#21A366"/>
</svg>
