<svg width="22" height="22" viewBox="0 0 22 22" fill="none" xmlns="http://www.w3.org/2000/svg">
<path d="M10.775 3.31367C10.1782 3.30176 9.68366 3.83159 9.67037 4.49617C9.65708 5.16167 10.1296 5.71076 10.7259 5.72267C11.3227 5.73551 11.8177 5.20613 11.8314 4.54017C11.8447 3.87513 11.3717 3.32513 10.775 3.31367ZM13.9787 4.87109C13.8804 4.86906 13.7824 4.88141 13.6877 4.90776C13.0744 5.07092 12.5583 5.47013 11.9455 6.06734C11.3781 6.62101 10.7649 6.97117 10.467 6.72872C9.55212 5.98438 8.3907 4.8248 7.82787 5.04617C7.4282 5.20384 7.4887 5.60992 7.81779 6.03251C8.26925 6.59809 9.53516 7.55417 9.46229 8.10738C9.3477 8.9828 8.88204 9.4228 8.42462 9.99297C8.21745 10.2515 8.16933 10.5164 8.22158 10.7268C7.82008 11.0581 7.41079 11.4216 7.03725 11.725C6.6967 12.0018 5.99454 11.6013 5.346 10.9701C4.6452 10.2877 4.05533 9.83209 3.35454 9.64555C2.35858 9.38155 2.22016 10.4041 3.12766 11.0618C3.77529 11.532 4.49854 11.6058 4.97841 12.3525C5.3295 12.8988 5.1425 13.622 4.79233 14.134C4.24233 14.9388 3.55941 15.454 3.32016 16.5082C3.19183 17.0742 3.67675 17.3025 4.33033 17.1031C5.08291 16.873 5.4065 15.9188 6.53033 14.6684C6.64354 14.5428 6.83466 14.5309 6.96437 14.684L8.46083 16.4541C8.66616 16.6869 8.88616 16.7749 9.07958 16.7625C8.96866 16.8987 8.85316 17.0339 8.7372 17.1773C8.12304 17.9428 8.90908 18.7646 9.53379 18.0555L10.8428 16.5045C10.9555 16.3707 11.1237 16.3817 11.2223 16.4917C12.205 17.5866 12.4887 18.4226 13.1464 18.6238C13.7184 18.7989 14.1428 18.5982 14.03 18.1018C13.8504 17.3075 13.3824 16.8615 12.9484 16.3033C13.1349 16.3065 13.3444 16.2162 13.5396 15.9948L15.0356 14.2243C15.1649 14.0712 15.3574 14.0831 15.4706 14.2087C16.5944 15.459 16.918 16.4133 17.6701 16.6434C18.3242 16.8432 18.8095 16.6145 18.6807 16.0485C18.4415 14.9943 17.7586 14.4778 17.2081 13.6734C16.858 13.1619 16.671 12.4386 17.022 11.8928C17.5019 11.1457 18.2247 11.0723 18.8719 10.6025C19.7794 9.94438 19.6419 8.92184 18.6459 9.1863C17.9456 9.37238 17.3543 9.82797 16.6535 10.5104C16.005 11.1415 15.3037 11.5421 14.9632 11.2653C14.4008 10.8083 13.7074 10.2771 13.1817 9.80322C12.886 9.53738 12.6729 9.19317 12.4295 8.83797C12.1234 8.39017 11.9597 7.7563 12.2668 7.2778C12.6862 6.62422 13.3192 6.56005 13.8857 6.14847C14.58 5.6443 14.5745 4.89447 13.9787 4.87017V4.87109ZM15.3157 7.36717C14.6332 7.35342 14.0685 7.95842 14.053 8.71742C14.0374 9.47642 14.5782 10.1039 15.2607 10.1176C15.9431 10.1314 16.5073 9.52638 16.5234 8.76692C16.5385 8.00747 15.9981 7.38092 15.3157 7.36717ZM6.68387 7.82642C6.00187 7.84017 5.46104 8.46672 5.47662 9.22663C5.49175 9.98655 6.05779 10.5906 6.74025 10.5769C7.42225 10.5631 7.96308 9.93613 7.9475 9.17667C7.93191 8.41722 7.36679 7.81176 6.68387 7.82642ZM10.7264 9.22205C10.797 9.22205 10.8639 9.25322 10.9106 9.30684C11.8933 10.4023 12.1756 11.2378 12.8338 11.439C13.0093 11.4931 13.5094 12.1219 13.5928 12.242C13.1464 12.4496 12.7302 12.792 12.2572 13.2526C11.6898 13.8054 11.0765 14.1569 10.7786 13.9145C10.1113 13.3713 9.31333 12.6096 8.712 12.3213C9.1575 11.8249 9.76662 11.3029 10.0655 10.9293C10.4266 10.4655 10.5036 10.0205 10.1021 9.82659L10.5297 9.32059C10.553 9.29066 10.5827 9.26625 10.6165 9.24913C10.6503 9.23202 10.6875 9.22261 10.7255 9.22159L10.7264 9.22205ZM11.0875 10.499C10.4908 10.487 9.99579 11.0169 9.98295 11.6824C9.97012 12.3479 10.4427 12.8956 11.039 12.9089C11.6352 12.9203 12.1298 12.391 12.1435 11.7259C12.1564 11.0604 11.6843 10.5113 11.0875 10.4994V10.499ZM8.18354 13.281C8.67258 13.8521 9.845 14.7596 9.77487 15.2922C9.74722 15.5108 9.6905 15.7248 9.6062 15.9284C9.56641 15.7533 9.48603 15.59 9.37154 15.4517C8.84812 14.8009 8.316 14.2972 8.18445 13.2975L8.18354 13.281ZM13.5685 13.6903C13.3334 14.1867 12.9786 14.5566 12.6289 14.992C12.5437 15.099 12.481 15.205 12.441 15.3101C12.386 15.0181 12.4158 14.7188 12.5799 14.4635C12.8471 14.0465 13.2005 13.87 13.5685 13.6903Z" stroke="#33C481" stroke-width="0.5" stroke-linecap="round" stroke-linejoin="round"/>
</svg>
