<svg width="45" height="45" viewBox="0 0 45 45" fill="none" xmlns="http://www.w3.org/2000/svg">
<g opacity="0.2">
<path d="M21.9375 17.4375C21.9375 19.2277 21.2263 20.9446 19.9605 22.2105C18.6946 23.4763 16.9777 24.1875 15.1875 24.1875C13.3973 24.1875 11.6804 23.4763 10.4145 22.2105C9.14866 20.9446 8.4375 19.2277 8.4375 17.4375C8.4375 15.6473 9.14866 13.9304 10.4145 12.6645C11.6804 11.3987 13.3973 10.6875 15.1875 10.6875C16.9777 10.6875 18.6946 11.3987 19.9605 12.6645C21.2263 13.9304 21.9375 15.6473 21.9375 17.4375Z" fill="#C1A400"/>
<path fill-rule="evenodd" clip-rule="evenodd" d="M15.1875 19.6875C15.7842 19.6875 16.3565 19.4504 16.7785 19.0285C17.2004 18.6065 17.4375 18.0342 17.4375 17.4375C17.4375 16.8408 17.2004 16.2685 16.7785 15.8465C16.3565 15.4246 15.7842 15.1875 15.1875 15.1875C14.5908 15.1875 14.0185 15.4246 13.5965 15.8465C13.1746 16.2685 12.9375 16.8408 12.9375 17.4375C12.9375 18.0342 13.1746 18.6065 13.5965 19.0285C14.0185 19.4504 14.5908 19.6875 15.1875 19.6875ZM15.1875 24.1875C16.0739 24.1875 16.9517 24.0129 17.7706 23.6737C18.5896 23.3345 19.3337 22.8373 19.9605 22.2105C20.5873 21.5837 21.0845 20.8396 21.4237 20.0206C21.7629 19.2017 21.9375 18.3239 21.9375 17.4375C21.9375 16.5511 21.7629 15.6733 21.4237 14.8544C21.0845 14.0354 20.5873 13.2913 19.9605 12.6645C19.3337 12.0377 18.5896 11.5405 17.7706 11.2013C16.9517 10.8621 16.0739 10.6875 15.1875 10.6875C13.3973 10.6875 11.6804 11.3987 10.4145 12.6645C9.14866 13.9304 8.4375 15.6473 8.4375 17.4375C8.4375 19.2277 9.14866 20.9446 10.4145 22.2105C11.6804 23.4763 13.3973 24.1875 15.1875 24.1875Z" fill="#C1A400"/>
<path fill-rule="evenodd" clip-rule="evenodd" d="M15.3 25.875C14.4049 25.875 13.5464 26.2306 12.9135 26.8635C12.2806 27.4964 11.925 28.3549 11.925 29.25V32.625C11.925 33.2217 11.6879 33.794 11.266 34.216C10.844 34.6379 10.2717 34.875 9.67499 34.875C9.07825 34.875 8.50595 34.6379 8.084 34.216C7.66204 33.794 7.42499 33.2217 7.42499 32.625V29.25C7.42499 27.1614 8.25467 25.1584 9.73152 23.6815C11.2084 22.2047 13.2114 21.375 15.3 21.375C17.3886 21.375 19.3916 22.2047 20.8685 23.6815C22.3453 25.1584 23.175 27.1614 23.175 29.25V30.375C23.175 30.9717 22.9379 31.544 22.516 31.966C22.094 32.3879 21.5217 32.625 20.925 32.625C20.3283 32.625 19.756 32.3879 19.334 31.966C18.912 31.544 18.675 30.9717 18.675 30.375V29.25C18.675 28.3549 18.3194 27.4964 17.6865 26.8635C17.0535 26.2306 16.1951 25.875 15.3 25.875Z" fill="#C1A400"/>
<path d="M28.6875 17.4375C28.6875 19.2277 29.3987 20.9446 30.6645 22.2105C31.9304 23.4763 33.6473 24.1875 35.4375 24.1875C37.2277 24.1875 38.9446 23.4763 40.2105 22.2105C41.4763 20.9446 42.1875 19.2277 42.1875 17.4375C42.1875 15.6473 41.4763 13.9304 40.2105 12.6645C38.9446 11.3987 37.2277 10.6875 35.4375 10.6875C33.6473 10.6875 31.9304 11.3987 30.6645 12.6645C29.3987 13.9304 28.6875 15.6473 28.6875 17.4375Z" fill="#C1A400"/>
<path fill-rule="evenodd" clip-rule="evenodd" d="M35.4375 19.6875C34.8408 19.6875 34.2685 19.4504 33.8465 19.0285C33.4246 18.6065 33.1875 18.0342 33.1875 17.4375C33.1875 16.8408 33.4246 16.2685 33.8465 15.8465C34.2685 15.4246 34.8408 15.1875 35.4375 15.1875C36.0342 15.1875 36.6065 15.4246 37.0285 15.8465C37.4504 16.2685 37.6875 16.8408 37.6875 17.4375C37.6875 18.0342 37.4504 18.6065 37.0285 19.0285C36.6065 19.4504 36.0342 19.6875 35.4375 19.6875ZM35.4375 24.1875C34.5511 24.1875 33.6733 24.0129 32.8544 23.6737C32.0354 23.3345 31.2913 22.8373 30.6645 22.2105C30.0377 21.5837 29.5405 20.8396 29.2013 20.0206C28.8621 19.2017 28.6875 18.3239 28.6875 17.4375C28.6875 16.5511 28.8621 15.6733 29.2013 14.8544C29.5405 14.0354 30.0377 13.2913 30.6645 12.6645C31.2913 12.0377 32.0354 11.5405 32.8544 11.2013C33.6733 10.8621 34.5511 10.6875 35.4375 10.6875C37.2277 10.6875 38.9446 11.3987 40.2105 12.6645C41.4763 13.9304 42.1875 15.6473 42.1875 17.4375C42.1875 19.2277 41.4763 20.9446 40.2105 22.2105C38.9446 23.4763 37.2277 24.1875 35.4375 24.1875Z" fill="#C1A400"/>
<path fill-rule="evenodd" clip-rule="evenodd" d="M35.325 25.875C36.2201 25.875 37.0785 26.2306 37.7115 26.8635C38.3444 27.4964 38.7 28.3549 38.7 29.25V32.625C38.7 33.2217 38.937 33.794 39.359 34.216C39.7809 34.6379 40.3532 34.875 40.95 34.875C41.5467 34.875 42.119 34.6379 42.541 34.216C42.9629 33.794 43.2 33.2217 43.2 32.625V29.25C43.2 27.1614 42.3703 25.1584 40.8934 23.6815C39.4166 22.2047 37.4136 21.375 35.325 21.375C33.2364 21.375 31.2334 22.2047 29.7565 23.6815C28.2797 25.1584 27.45 27.1614 27.45 29.25V30.375C27.45 30.9717 27.687 31.544 28.109 31.966C28.5309 32.3879 29.1032 32.625 29.7 32.625C30.2967 32.625 30.869 32.3879 31.291 31.966C31.7129 31.544 31.95 30.9717 31.95 30.375V29.25C31.95 28.3549 32.3056 27.4964 32.9385 26.8635C33.5714 26.2306 34.4299 25.875 35.325 25.875Z" fill="#C1A400"/>
<path fill-rule="evenodd" clip-rule="evenodd" d="M25.425 32.0625C24.5299 32.0625 23.6714 32.4181 23.0385 33.051C22.4056 33.6839 22.05 34.5424 22.05 35.4375V38.8125C22.05 39.4092 21.8129 39.9815 21.391 40.4035C20.969 40.8254 20.3967 41.0625 19.8 41.0625C19.2033 41.0625 18.631 40.8254 18.209 40.4035C17.787 39.9815 17.55 39.4092 17.55 38.8125V35.4375C17.55 33.3489 18.3797 31.3459 19.8565 29.869C21.3334 28.3922 23.3364 27.5625 25.425 27.5625C27.5136 27.5625 29.5166 28.3922 30.9935 29.869C32.4703 31.3459 33.3 33.3489 33.3 35.4375V38.8125C33.3 39.4092 33.0629 39.9815 32.641 40.4035C32.219 40.8254 31.6467 41.0625 31.05 41.0625C30.4533 41.0625 29.881 40.8254 29.459 40.4035C29.037 39.9815 28.8 39.4092 28.8 38.8125V35.4375C28.8 34.5424 28.4444 33.6839 27.8115 33.051C27.1785 32.4181 26.3201 32.0625 25.425 32.0625Z" fill="#C1A400"/>
<path d="M32.0625 23.625C32.0625 25.4152 31.3513 27.1321 30.0855 28.398C28.8196 29.6638 27.1027 30.375 25.3125 30.375C23.5223 30.375 21.8054 29.6638 20.5395 28.398C19.2737 27.1321 18.5625 25.4152 18.5625 23.625C18.5625 21.8348 19.2737 20.1179 20.5395 18.852C21.8054 17.5862 23.5223 16.875 25.3125 16.875C27.1027 16.875 28.8196 17.5862 30.0855 18.852C31.3513 20.1179 32.0625 21.8348 32.0625 23.625Z" fill="#C1A400"/>
<path fill-rule="evenodd" clip-rule="evenodd" d="M25.3125 25.875C25.9092 25.875 26.4815 25.6379 26.9035 25.216C27.3254 24.794 27.5625 24.2217 27.5625 23.625C27.5625 23.0283 27.3254 22.456 26.9035 22.034C26.4815 21.6121 25.9092 21.375 25.3125 21.375C24.7158 21.375 24.1435 21.6121 23.7215 22.034C23.2996 22.456 23.0625 23.0283 23.0625 23.625C23.0625 24.2217 23.2996 24.794 23.7215 25.216C24.1435 25.6379 24.7158 25.875 25.3125 25.875ZM25.3125 30.375C27.1027 30.375 28.8196 29.6638 30.0855 28.398C31.3513 27.1321 32.0625 25.4152 32.0625 23.625C32.0625 21.8348 31.3513 20.1179 30.0855 18.852C28.8196 17.5862 27.1027 16.875 25.3125 16.875C23.5223 16.875 21.8054 17.5862 20.5395 18.852C19.2737 20.1179 18.5625 21.8348 18.5625 23.625C18.5625 25.4152 19.2737 27.1321 20.5395 28.398C21.8054 29.6638 23.5223 30.375 25.3125 30.375Z" fill="#C1A400"/>
<path d="M9.5625 25.875H20.8125V34.875H9.5625V25.875ZM29.8125 25.875H41.0625V34.875H29.8125V25.875Z" fill="#C1A400"/>
<path d="M20.8125 30.375H29.8125L30.9375 41.0625H19.6875L20.8125 30.375Z" fill="#C1A400"/>
</g>
<path fill-rule="evenodd" clip-rule="evenodd" d="M11.25 20.25C12.4435 20.25 13.5881 19.7759 14.432 18.932C15.2759 18.0881 15.75 16.9435 15.75 15.75C15.75 14.5565 15.2759 13.4119 14.432 12.568C13.5881 11.7241 12.4435 11.25 11.25 11.25C10.0565 11.25 8.91193 11.7241 8.06802 12.568C7.22411 13.4119 6.75 14.5565 6.75 15.75C6.75 16.9435 7.22411 18.0881 8.06802 18.932C8.91193 19.7759 10.0565 20.25 11.25 20.25ZM11.25 22.5C12.1364 22.5 13.0142 22.3254 13.8331 21.9862C14.6521 21.647 15.3962 21.1498 16.023 20.523C16.6498 19.8962 17.147 19.1521 17.4862 18.3331C17.8254 17.5142 18 16.6364 18 15.75C18 14.8636 17.8254 13.9858 17.4862 13.1669C17.147 12.3479 16.6498 11.6038 16.023 10.977C15.3962 10.3502 14.6521 9.85303 13.8331 9.51381C13.0142 9.17459 12.1364 9 11.25 9C9.45979 9 7.7429 9.71116 6.47703 10.977C5.21116 12.2429 4.5 13.9598 4.5 15.75C4.5 17.5402 5.21116 19.2571 6.47703 20.523C7.7429 21.7888 9.45979 22.5 11.25 22.5Z" fill="#C1A400"/>
<path fill-rule="evenodd" clip-rule="evenodd" d="M8.6715 20.0158C8.77627 20.1203 8.85939 20.2444 8.9161 20.3811C8.97282 20.5178 9.00201 20.6643 9.00201 20.8123C9.00201 20.9602 8.97282 21.1068 8.9161 21.2434C8.85939 21.3801 8.77627 21.5043 8.6715 21.6088L7.911 22.367C6.44745 23.831 5.62519 25.8162 5.625 27.8863V32.0623C5.625 32.3606 5.50647 32.6468 5.29549 32.8578C5.08452 33.0687 4.79837 33.1873 4.5 33.1873C4.20163 33.1873 3.91548 33.0687 3.7045 32.8578C3.49353 32.6468 3.375 32.3606 3.375 32.0623V27.8863C3.37532 25.2195 4.43472 22.6621 6.32025 20.7763L7.0785 20.0158C7.183 19.911 7.30715 19.8279 7.44382 19.7712C7.5805 19.7144 7.72702 19.6853 7.875 19.6853C8.02298 19.6853 8.1695 19.7144 8.30618 19.7712C8.44285 19.8279 8.567 19.911 8.6715 20.0158ZM35.2035 19.3408C35.0987 19.4453 35.0156 19.5694 34.9589 19.7061C34.9022 19.8428 34.873 19.9893 34.873 20.1373C34.873 20.2852 34.9022 20.4318 34.9589 20.5684C35.0156 20.7051 35.0987 20.8293 35.2035 20.9338L35.964 21.692C37.4275 23.156 38.2498 25.1412 38.25 27.2113V32.0623C38.25 32.3606 38.3685 32.6468 38.5795 32.8578C38.7905 33.0687 39.0766 33.1873 39.375 33.1873C39.6734 33.1873 39.9595 33.0687 40.1705 32.8578C40.3815 32.6468 40.5 32.3606 40.5 32.0623V27.2113C40.4997 24.5445 39.4403 21.9871 37.5547 20.1013L36.7965 19.3408C36.692 19.236 36.5679 19.1529 36.4312 19.0962C36.2945 19.0394 36.148 19.0103 36 19.0103C35.852 19.0103 35.7055 19.0394 35.5688 19.0962C35.4321 19.1529 35.308 19.236 35.2035 19.3408Z" fill="#C1A400"/>
<path fill-rule="evenodd" clip-rule="evenodd" d="M31.5 20.25C30.3065 20.25 29.1619 19.7759 28.318 18.932C27.4741 18.0881 27 16.9435 27 15.75C27 14.5565 27.4741 13.4119 28.318 12.568C29.1619 11.7241 30.3065 11.25 31.5 11.25C32.6935 11.25 33.8381 11.7241 34.682 12.568C35.5259 13.4119 36 14.5565 36 15.75C36 16.9435 35.5259 18.0881 34.682 18.932C33.8381 19.7759 32.6935 20.25 31.5 20.25ZM31.5 22.5C30.6136 22.5 29.7358 22.3254 28.9169 21.9862C28.0979 21.647 27.3538 21.1498 26.727 20.523C26.1002 19.8962 25.603 19.1521 25.2638 18.3331C24.9246 17.5142 24.75 16.6364 24.75 15.75C24.75 14.8636 24.9246 13.9858 25.2638 13.1669C25.603 12.3479 26.1002 11.6038 26.727 10.977C27.3538 10.3502 28.0979 9.85303 28.9169 9.51381C29.7358 9.17459 30.6136 9 31.5 9C33.2902 9 35.0071 9.71116 36.273 10.977C37.5388 12.2429 38.25 13.9598 38.25 15.75C38.25 17.5402 37.5388 19.2571 36.273 20.523C35.0071 21.7888 33.2902 22.5 31.5 22.5ZM21.375 29.8125C19.8832 29.8125 18.4524 30.4051 17.3975 31.46C16.3426 32.5149 15.75 33.9457 15.75 35.4375V38.3625C15.75 38.6609 15.6315 38.947 15.4205 39.158C15.2095 39.369 14.9234 39.4875 14.625 39.4875C14.3266 39.4875 14.0405 39.369 13.8295 39.158C13.6185 38.947 13.5 38.6609 13.5 38.3625V35.4375C13.5 33.3489 14.3297 31.3459 15.8065 29.869C17.2834 28.3922 19.2864 27.5625 21.375 27.5625C23.4636 27.5625 25.4666 28.3922 26.9435 29.869C28.4203 31.3459 29.25 33.3489 29.25 35.4375V38.3625C29.25 38.6609 29.1315 38.947 28.9205 39.158C28.7095 39.369 28.4234 39.4875 28.125 39.4875C27.8266 39.4875 27.5405 39.369 27.3295 39.158C27.1185 38.947 27 38.6609 27 38.3625V35.4375C27 34.6988 26.8545 33.9674 26.5718 33.2849C26.2891 32.6024 25.8748 31.9824 25.3525 31.46C24.8301 30.9377 24.2101 30.5234 23.5276 30.2407C22.8451 29.958 22.1137 29.8125 21.375 29.8125Z" fill="#C1A400"/>
<path fill-rule="evenodd" clip-rule="evenodd" d="M21.375 26.4375C22.5685 26.4375 23.7131 25.9634 24.557 25.1195C25.4009 24.2756 25.875 23.131 25.875 21.9375C25.875 20.744 25.4009 19.5994 24.557 18.7555C23.7131 17.9116 22.5685 17.4375 21.375 17.4375C20.1815 17.4375 19.0369 17.9116 18.193 18.7555C17.3491 19.5994 16.875 20.744 16.875 21.9375C16.875 23.131 17.3491 24.2756 18.193 25.1195C19.0369 25.9634 20.1815 26.4375 21.375 26.4375ZM21.375 28.6875C23.1652 28.6875 24.8821 27.9763 26.148 26.7105C27.4138 25.4446 28.125 23.7277 28.125 21.9375C28.125 20.1473 27.4138 18.4304 26.148 17.1645C24.8821 15.8987 23.1652 15.1875 21.375 15.1875C19.5848 15.1875 17.8679 15.8987 16.602 17.1645C15.3362 18.4304 14.625 20.1473 14.625 21.9375C14.625 23.7277 15.3362 25.4446 16.602 26.7105C17.8679 27.9763 19.5848 28.6875 21.375 28.6875Z" fill="#C1A400"/>
</svg>
